<svg width="41" height="42" viewBox="0 0 41 42" fill="none" xmlns="http://www.w3.org/2000/svg">
<path d="M20.9923 37.667C11.8089 37.6651 4.32715 30.1969 4.32905 20.9969C4.33094 11.8135 11.8158 4.33174 20.9992 4.33364C30.1992 4.33554 37.6643 11.8204 37.6624 21.0037C37.6605 30.2037 30.1923 37.6689 20.9923 37.667ZM25.895 24.2846C26.3783 24.7847 27.1783 24.7849 27.6617 24.3017C28.1618 23.8018 28.162 23.0184 27.6621 22.535L21.8799 16.7172C21.6466 16.4838 21.33 16.3504 20.9967 16.3503C20.6633 16.3502 20.3466 16.4835 20.1133 16.7168L14.3287 22.5323C14.0787 22.7655 13.9619 23.0822 13.9619 23.3988C13.9618 23.7322 14.0784 24.0489 14.3284 24.2989C14.8283 24.7824 15.6116 24.7825 16.095 24.2826L20.996 19.367L25.895 24.2846Z" fill="#FFCC41"/>
</svg>
