<svg width="16" height="20" viewBox="0 0 16 20" fill="none" xmlns="http://www.w3.org/2000/svg">
<g clip-path="url(#clip0_540_1269)">
<path d="M8 2C3.58862 2 0 5.58862 0 10C0 14.4114 3.58862 18 8 18C12.4114 18 16 14.4114 16 10C16 5.58862 12.4114 2 8 2Z" fill="#162D43"/>
<path d="M12.0547 8.30469L7.72131 12.6379C7.59131 12.7679 7.42065 12.8334 7.25 12.8334C7.07935 12.8334 6.90869 12.7679 6.77869 12.6379L4.61206 10.4713C4.35132 10.2107 4.35132 9.78931 4.61206 9.52869C4.87268 9.26794 5.29395 9.26794 5.55469 9.52869L7.25 11.224L11.1121 7.36206C11.3727 7.10132 11.7939 7.10132 12.0547 7.36206C12.3153 7.62268 12.3153 8.04395 12.0547 8.30469Z" fill="#FFCC41"/>
</g>
<defs>
<clipPath id="clip0_540_1269">
<rect width="16" height="16" fill="white" transform="translate(0 2)"/>
</clipPath>
</defs>
</svg>
