<svg width="65" height="82" viewBox="0 0 65 82" fill="none" xmlns="http://www.w3.org/2000/svg">
<path d="M5.2656 32.121C3.99204 32.121 2.95935 33.1537 2.95935 34.4272C2.95935 35.7008 3.99204 36.7335 5.2656 36.7335H29.9937C31.2673 36.7335 32.3 35.7008 32.3 34.4272C32.3 33.1537 31.2673 32.121 29.9937 32.121H5.2656Z" fill="white" fill-opacity="0.3"/>
<path d="M16.3843 45.2128H5.2656C3.99204 45.2128 2.95935 46.2455 2.95935 47.519C2.95935 48.7926 3.99204 49.8253 5.2656 49.8253H16.3843C17.6579 49.8253 18.6905 48.7926 18.6905 47.519C18.6905 46.2455 17.6579 45.2128 16.3843 45.2128Z" fill="white" fill-opacity="0.3"/>
<path d="M16.0435 74.5687H-1.50968C-5.28424 74.5687 -8.35155 71.4886 -8.35155 67.7012V20.9869C-8.35155 17.1995 -5.28424 14.1194 -1.50968 14.1194H3.25401V14.6985C3.25401 18.063 5.99076 20.7972 9.35532 20.7972H31.3928C34.7574 20.7972 37.4941 18.063 37.4941 14.6985V14.1194H42.2348C46.0708 14.1194 49.0741 17.1354 49.0741 20.9869V34.1325C49.0741 35.406 50.1068 36.4387 51.3803 36.4387C52.6539 36.4387 53.6866 35.406 53.6866 34.1325V20.9869C53.6866 14.6575 48.5488 9.50685 42.2322 9.50685H37.4916V8.91748C37.4916 5.55291 34.7548 2.81873 31.3903 2.81873H9.35276C5.9882 2.81873 3.25145 5.55291 3.25145 8.91748V9.50685H-1.50968C-7.82624 9.50685 -12.9666 14.6575 -12.9666 20.9869V67.7012C-12.9666 74.0306 -7.82624 79.1812 -1.50968 79.1812H16.0435C17.317 79.1812 18.3497 78.1485 18.3497 76.875C18.3497 75.6014 17.317 74.5687 16.0435 74.5687ZM7.86907 8.91748C7.86907 8.09748 8.53532 7.43123 9.35532 7.43123H31.3928C32.2128 7.43123 32.8791 8.09748 32.8791 8.91748V14.6959C32.8791 15.5159 32.2128 16.1822 31.3928 16.1822H9.35532C8.53532 16.1822 7.86907 15.5159 7.86907 14.6959V8.91748Z" fill="white" fill-opacity="0.3"/>
<path d="M58.5169 44.4799C55.3599 41.3203 49.848 41.3178 46.6884 44.4799L26.2422 64.9261C25.5837 65.5846 25.1532 66.42 24.9968 67.3399L23.8745 73.9743C23.6362 75.3965 24.1051 76.8571 25.125 77.8744C25.968 78.7174 27.1083 79.1787 28.2794 79.1787C28.528 79.1787 28.774 79.1582 29.02 79.1172L35.6517 77.9974C36.5717 77.8411 37.407 77.4106 38.0656 76.752L58.5118 56.3058C61.7738 53.0463 61.7738 47.7419 58.5169 44.4799ZM34.8855 73.4515L28.4255 74.7404L29.5068 68.1881L44.1618 53.5332L49.4687 58.8401L34.8855 73.4515ZM55.2523 53.0438L52.7257 55.5755L47.4213 50.2711L49.9505 47.742C50.6577 47.0347 51.6007 46.6426 52.6001 46.6426C53.6046 46.6426 54.545 47.0321 55.2523 47.742C56.7155 49.2051 56.7155 51.5806 55.2523 53.0438Z" fill="white" fill-opacity="0.3"/>
</svg>
